<svg xmlns="http://www.w3.org/2000/svg" version="1.1" width="448mm" height="338mm" viewBox = " 0 0 1587.40288 1197.63878" >
<!-- Front--> 
<g transform="translate(49.60634, 49.60634) " > 
<polygon style="stroke:#000000; fill:none; stroke-width:0.90000074" points="0, 0 38.97641, 0 38.97641, 14.17324 77.95282, 14.17324 77.95282, 0 106.2993, 0 106.2993, 14.17324 134.64578, 14.17324 134.64578, 0 162.99226, 0 162.99226, 14.17324 191.33874, 14.17324 191.33874, 0 219.68522, 0 219.68522, 14.17324 248.0317, 14.17324 248.0317, 0 276.37818000000004, 0 276.37818000000004, 14.17324 315.35459000000003, 14.17324 315.35459000000003, 0 354.331, 0 354.331, 44.291375 340.15776, 44.291375 340.15776, 88.58275 354.331, 88.58275 354.331, 116.92923 340.15776, 116.92923 340.15776, 145.27571 354.331, 145.27571 354.331, 173.62219 340.15776, 173.62219 340.15776, 201.96867 354.331, 201.96867 354.331, 230.31515 340.15776, 230.31515 340.15776, 274.606525 354.331, 274.606525 354.331, 318.8979 315.35459000000003, 318.8979 315.35459000000003, 304.72466 276.37818000000004, 304.72466 276.37818000000004, 318.8979 248.0317, 318.8979 248.0317, 304.72466 219.68522, 304.72466 219.68522, 318.8979 191.33874, 318.8979 191.33874, 304.72466 162.99226, 304.72466 162.99226, 318.8979 134.64578, 318.8979 134.64578, 304.72466 106.2993, 304.72466 106.2993, 318.8979 77.95282, 318.8979 77.95282, 304.72466 38.97641, 304.72466 38.97641, 318.8979 0, 318.8979 0, 274.606525 14.17324, 274.606525 14.17324, 230.31515 0, 230.31515 0, 201.96867 14.17324, 201.96867 14.17324, 173.62219 0, 173.62219 0, 145.27571 14.17324, 145.27571 14.17324, 116.92923 0, 116.92923 0, 88.58275 14.17324, 88.58275 14.17324, 44.291375 0, 44.291375 "/> 
</g>
<!-- Back--> 
<g transform="translate(403.93734, 49.60634) " > 
<polygon style="stroke:#000000; fill:none; stroke-width:0.90000074" points="0, 0 38.97641, 0 38.97641, 14.17324 77.95282, 14.17324 77.95282, 0 106.2993, 0 106.2993, 14.17324 134.64578, 14.17324 134.64578, 0 162.99226, 0 162.99226, 14.17324 191.33874, 14.17324 191.33874, 0 219.68522, 0 219.68522, 14.17324 248.0317, 14.17324 248.0317, 0 276.37818000000004, 0 276.37818000000004, 14.17324 315.35459000000003, 14.17324 315.35459000000003, 0 354.331, 0 354.331, 44.291375 340.15776, 44.291375 340.15776, 88.58275 354.331, 88.58275 354.331, 116.92923 340.15776, 116.92923 340.15776, 145.27571 354.331, 145.27571 354.331, 173.62219 340.15776, 173.62219 340.15776, 201.96867 354.331, 201.96867 354.331, 230.31515 340.15776, 230.31515 340.15776, 274.606525 354.331, 274.606525 354.331, 318.8979 315.35459000000003, 318.8979 315.35459000000003, 304.72466 276.37818000000004, 304.72466 276.37818000000004, 318.8979 248.0317, 318.8979 248.0317, 304.72466 219.68522, 304.72466 219.68522, 318.8979 191.33874, 318.8979 191.33874, 304.72466 162.99226, 304.72466 162.99226, 318.8979 134.64578, 318.8979 134.64578, 304.72466 106.2993, 304.72466 106.2993, 318.8979 77.95282, 318.8979 77.95282, 304.72466 38.97641, 304.72466 38.97641, 318.8979 0, 318.8979 0, 274.606525 14.17324, 274.606525 14.17324, 230.31515 0, 230.31515 0, 201.96867 14.17324, 201.96867 14.17324, 173.62219 0, 173.62219 0, 145.27571 14.17324, 145.27571 14.17324, 116.92923 0, 116.92923 0, 88.58275 14.17324, 88.58275 14.17324, 44.291375 0, 44.291375 "/> 
</g>
<!-- Left--> 
<g transform="translate(758.26834, 49.60634) " > 
<polygon style="stroke:#000000; fill:none; stroke-width:0.90000074" points="14.17324, 0 46.06303, 0 46.06303, 14.17324 92.12606, 14.17324 92.12606, 0 120.47254, 0 120.47254, 14.17324 148.81902, 14.17324 148.81902, 0 177.1655, 0 177.1655, 14.17324 205.51198, 14.17324 205.51198, 0 233.85845999999998, 0 233.85845999999998, 14.17324 262.20493999999997, 14.17324 262.20493999999997, 0 290.55142, 0 290.55142, 14.17324 318.8979, 14.17324 318.8979, 0 347.24438, 0 347.24438, 14.17324 375.59085999999996, 14.17324 375.59085999999996, 0 403.93734, 0 403.93734, 14.17324 432.28382, 14.17324 432.28382, 0 460.6303, 0 460.6303, 14.17324 488.97678, 14.17324 488.97678, 0 517.32326, 0 517.32326, 14.17324 545.66974, 14.17324 545.66974, 0 574.01622, 0 574.01622, 14.17324 602.3626999999999, 14.17324 602.3626999999999, 0 630.7091800000001, 0 630.7091800000001, 14.17324 659.05566, 14.17324 659.05566, 0 687.4021399999999, 0 687.4021399999999, 14.17324 733.46517, 14.17324 733.46517, 0 765.35496, 0 765.35496, 44.291375 779.5282, 44.291375 779.5282, 88.58275 765.35496, 88.58275 765.35496, 116.92923 779.5282, 116.92923 779.5282, 145.27571 765.35496, 145.27571 765.35496, 173.62219 779.5282, 173.62219 779.5282, 201.96867 765.35496, 201.96867 765.35496, 230.31515 779.5282, 230.31515 779.5282, 274.606525 765.35496, 274.606525 765.35496, 318.8979 733.46517, 318.8979 733.46517, 304.72466 687.4021399999999, 304.72466 687.4021399999999, 318.8979 659.05566, 318.8979 659.05566, 304.72466 630.7091800000001, 304.72466 630.7091800000001, 318.8979 602.3626999999999, 318.8979 602.3626999999999, 304.72466 574.01622, 304.72466 574.01622, 318.8979 545.66974, 318.8979 545.66974, 304.72466 517.32326, 304.72466 517.32326, 318.8979 488.97678, 318.8979 488.97678, 304.72466 460.6303, 304.72466 460.6303, 318.8979 432.28382, 318.8979 432.28382, 304.72466 403.93734, 304.72466 403.93734, 318.8979 375.59085999999996, 318.8979 375.59085999999996, 304.72466 347.24438, 304.72466 347.24438, 318.8979 318.8979, 318.8979 318.8979, 304.72466 290.55142, 304.72466 290.55142, 318.8979 262.20493999999997, 318.8979 262.20493999999997, 304.72466 233.85845999999998, 304.72466 233.85845999999998, 318.8979 205.51198, 318.8979 205.51198, 304.72466 177.1655, 304.72466 177.1655, 318.8979 148.81902, 318.8979 148.81902, 304.72466 120.47254, 304.72466 120.47254, 318.8979 92.12606, 318.8979 92.12606, 304.72466 46.06303, 304.72466 46.06303, 318.8979 14.17324, 318.8979 14.17324, 274.606525 0, 274.606525 0, 230.31515 14.17324, 230.31515 14.17324, 201.96867 0, 201.96867 0, 173.62219 14.17324, 173.62219 14.17324, 145.27571 0, 145.27571 0, 116.92923 14.17324, 116.92923 14.17324, 88.58275 0, 88.58275 0, 44.291375 14.17324, 44.291375 "/> 
</g>
<!-- Right--> 
<g transform="translate(758.26834, 368.50424) " > 
<polygon style="stroke:#000000; fill:none; stroke-width:0.90000074" points="14.17324, 0 46.06303, 0 46.06303, 14.17324 92.12606, 14.17324 92.12606, 0 120.47254, 0 120.47254, 14.17324 148.81902, 14.17324 148.81902, 0 177.1655, 0 177.1655, 14.17324 205.51198, 14.17324 205.51198, 0 233.85845999999998, 0 233.85845999999998, 14.17324 262.20493999999997, 14.17324 262.20493999999997, 0 290.55142, 0 290.55142, 14.17324 318.8979, 14.17324 318.8979, 0 347.24438, 0 347.24438, 14.17324 375.59085999999996, 14.17324 375.59085999999996, 0 403.93734, 0 403.93734, 14.17324 432.28382, 14.17324 432.28382, 0 460.6303, 0 460.6303, 14.17324 488.97678, 14.17324 488.97678, 0 517.32326, 0 517.32326, 14.17324 545.66974, 14.17324 545.66974, 0 574.01622, 0 574.01622, 14.17324 602.3626999999999, 14.17324 602.3626999999999, 0 630.7091800000001, 0 630.7091800000001, 14.17324 659.05566, 14.17324 659.05566, 0 687.4021399999999, 0 687.4021399999999, 14.17324 733.46517, 14.17324 733.46517, 0 765.35496, 0 765.35496, 44.291375 779.5282, 44.291375 779.5282, 88.58275 765.35496, 88.58275 765.35496, 116.92923 779.5282, 116.92923 779.5282, 145.27571 765.35496, 145.27571 765.35496, 173.62219 779.5282, 173.62219 779.5282, 201.96867 765.35496, 201.96867 765.35496, 230.31515 779.5282, 230.31515 779.5282, 274.606525 765.35496, 274.606525 765.35496, 318.8979 733.46517, 318.8979 733.46517, 304.72466 687.4021399999999, 304.72466 687.4021399999999, 318.8979 659.05566, 318.8979 659.05566, 304.72466 630.7091800000001, 304.72466 630.7091800000001, 318.8979 602.3626999999999, 318.8979 602.3626999999999, 304.72466 574.01622, 304.72466 574.01622, 318.8979 545.66974, 318.8979 545.66974, 304.72466 517.32326, 304.72466 517.32326, 318.8979 488.97678, 318.8979 488.97678, 304.72466 460.6303, 304.72466 460.6303, 318.8979 432.28382, 318.8979 432.28382, 304.72466 403.93734, 304.72466 403.93734, 318.8979 375.59085999999996, 318.8979 375.59085999999996, 304.72466 347.24438, 304.72466 347.24438, 318.8979 318.8979, 318.8979 318.8979, 304.72466 290.55142, 304.72466 290.55142, 318.8979 262.20493999999997, 318.8979 262.20493999999997, 304.72466 233.85845999999998, 304.72466 233.85845999999998, 318.8979 205.51198, 318.8979 205.51198, 304.72466 177.1655, 304.72466 177.1655, 318.8979 148.81902, 318.8979 148.81902, 304.72466 120.47254, 304.72466 120.47254, 318.8979 92.12606, 318.8979 92.12606, 304.72466 46.06303, 304.72466 46.06303, 318.8979 14.17324, 318.8979 14.17324, 274.606525 0, 274.606525 0, 230.31515 14.17324, 230.31515 14.17324, 201.96867 0, 201.96867 0, 173.62219 14.17324, 173.62219 14.17324, 145.27571 0, 145.27571 0, 116.92923 14.17324, 116.92923 14.17324, 88.58275 0, 88.58275 0, 44.291375 14.17324, 44.291375 "/> 
</g>
<!-- Top--> 
<g transform="translate(49.60634, 368.50424) " > 
<polygon style="stroke:#000000; fill:none; stroke-width:0.90000074" points="14.17324, 14.17324 38.97641, 14.17324 38.97641, 0 77.95282, 0 77.95282, 14.17324 106.2993, 14.17324 106.2993, 0 134.64578, 0 134.64578, 14.17324 162.99226, 14.17324 162.99226, 0 191.33874, 0 191.33874, 14.17324 219.68522, 14.17324 219.68522, 0 248.0317, 0 248.0317, 14.17324 276.37818000000004, 14.17324 276.37818000000004, 0 315.35459000000003, 0 315.35459000000003, 14.17324 340.15776, 14.17324 340.15776, 46.06303 354.331, 46.06303 354.331, 92.12606 340.15776, 92.12606 340.15776, 120.47254 354.331, 120.47254 354.331, 148.81902 340.15776, 148.81902 340.15776, 177.1655 354.331, 177.1655 354.331, 205.51198 340.15776, 205.51198 340.15776, 233.85845999999998 354.331, 233.85845999999998 354.331, 262.20493999999997 340.15776, 262.20493999999997 340.15776, 290.55142 354.331, 290.55142 354.331, 318.8979 340.15776, 318.8979 340.15776, 347.24438 354.331, 347.24438 354.331, 375.59085999999996 340.15776, 375.59085999999996 340.15776, 403.93734 354.331, 403.93734 354.331, 432.28382 340.15776, 432.28382 340.15776, 460.6303 354.331, 460.6303 354.331, 488.97678 340.15776, 488.97678 340.15776, 517.32326 354.331, 517.32326 354.331, 545.66974 340.15776, 545.66974 340.15776, 574.01622 354.331, 574.01622 354.331, 602.3626999999999 340.15776, 602.3626999999999 340.15776, 630.7091800000001 354.331, 630.7091800000001 354.331, 659.05566 340.15776, 659.05566 340.15776, 687.4021399999999 354.331, 687.4021399999999 354.331, 733.46517 340.15776, 733.46517 340.15776, 765.35496 315.35459000000003, 765.35496 315.35459000000003, 779.5282 276.37818000000004, 779.5282 276.37818000000004, 765.35496 248.0317, 765.35496 248.0317, 779.5282 219.68522, 779.5282 219.68522, 765.35496 191.33874, 765.35496 191.33874, 779.5282 162.99226, 779.5282 162.99226, 765.35496 134.64578, 765.35496 134.64578, 779.5282 106.2993, 779.5282 106.2993, 765.35496 77.95282, 765.35496 77.95282, 779.5282 38.97641, 779.5282 38.97641, 765.35496 14.17324, 765.35496 14.17324, 733.46517 0, 733.46517 0, 687.4021399999999 14.17324, 687.4021399999999 14.17324, 659.05566 0, 659.05566 0, 630.7091800000001 14.17324, 630.7091800000001 14.17324, 602.3626999999999 0, 602.3626999999999 0, 574.01622 14.17324, 574.01622 14.17324, 545.66974 0, 545.66974 0, 517.32326 14.17324, 517.32326 14.17324, 488.97678 0, 488.97678 0, 460.6303 14.17324, 460.6303 14.17324, 432.28382 0, 432.28382 0, 403.93734 14.17324, 403.93734 14.17324, 375.59085999999996 0, 375.59085999999996 0, 347.24438 14.17324, 347.24438 14.17324, 318.8979 0, 318.8979 0, 290.55142 14.17324, 290.55142 14.17324, 262.20493999999997 0, 262.20493999999997 0, 233.85845999999998 14.17324, 233.85845999999998 14.17324, 205.51198 0, 205.51198 0, 177.1655 14.17324, 177.1655 14.17324, 148.81902 0, 148.81902 0, 120.47254 14.17324, 120.47254 14.17324, 92.12606 0, 92.12606 0, 46.06303 14.17324, 46.06303 "/> 
</g>
<!-- Bottom--> 
<g transform="translate(403.93734, 368.50424) " > 
<polygon style="stroke:#000000; fill:none; stroke-width:0.90000074" points="14.17324, 14.17324 38.97641, 14.17324 38.97641, 0 77.95282, 0 77.95282, 14.17324 106.2993, 14.17324 106.2993, 0 134.64578, 0 134.64578, 14.17324 162.99226, 14.17324 162.99226, 0 191.33874, 0 191.33874, 14.17324 219.68522, 14.17324 219.68522, 0 248.0317, 0 248.0317, 14.17324 276.37818000000004, 14.17324 276.37818000000004, 0 315.35459000000003, 0 315.35459000000003, 14.17324 340.15776, 14.17324 340.15776, 46.06303 354.331, 46.06303 354.331, 92.12606 340.15776, 92.12606 340.15776, 120.47254 354.331, 120.47254 354.331, 148.81902 340.15776, 148.81902 340.15776, 177.1655 354.331, 177.1655 354.331, 205.51198 340.15776, 205.51198 340.15776, 233.85845999999998 354.331, 233.85845999999998 354.331, 262.20493999999997 340.15776, 262.20493999999997 340.15776, 290.55142 354.331, 290.55142 354.331, 318.8979 340.15776, 318.8979 340.15776, 347.24438 354.331, 347.24438 354.331, 375.59085999999996 340.15776, 375.59085999999996 340.15776, 403.93734 354.331, 403.93734 354.331, 432.28382 340.15776, 432.28382 340.15776, 460.6303 354.331, 460.6303 354.331, 488.97678 340.15776, 488.97678 340.15776, 517.32326 354.331, 517.32326 354.331, 545.66974 340.15776, 545.66974 340.15776, 574.01622 354.331, 574.01622 354.331, 602.3626999999999 340.15776, 602.3626999999999 340.15776, 630.7091800000001 354.331, 630.7091800000001 354.331, 659.05566 340.15776, 659.05566 340.15776, 687.4021399999999 354.331, 687.4021399999999 354.331, 733.46517 340.15776, 733.46517 340.15776, 765.35496 315.35459000000003, 765.35496 315.35459000000003, 779.5282 276.37818000000004, 779.5282 276.37818000000004, 765.35496 248.0317, 765.35496 248.0317, 779.5282 219.68522, 779.5282 219.68522, 765.35496 191.33874, 765.35496 191.33874, 779.5282 162.99226, 779.5282 162.99226, 765.35496 134.64578, 765.35496 134.64578, 779.5282 106.2993, 779.5282 106.2993, 765.35496 77.95282, 765.35496 77.95282, 779.5282 38.97641, 779.5282 38.97641, 765.35496 14.17324, 765.35496 14.17324, 733.46517 0, 733.46517 0, 687.4021399999999 14.17324, 687.4021399999999 14.17324, 659.05566 0, 659.05566 0, 630.7091800000001 14.17324, 630.7091800000001 14.17324, 602.3626999999999 0, 602.3626999999999 0, 574.01622 14.17324, 574.01622 14.17324, 545.66974 0, 545.66974 0, 517.32326 14.17324, 517.32326 14.17324, 488.97678 0, 488.97678 0, 460.6303 14.17324, 460.6303 14.17324, 432.28382 0, 432.28382 0, 403.93734 14.17324, 403.93734 14.17324, 375.59085999999996 0, 375.59085999999996 0, 347.24438 14.17324, 347.24438 14.17324, 318.8979 0, 318.8979 0, 290.55142 14.17324, 290.55142 14.17324, 262.20493999999997 0, 262.20493999999997 0, 233.85845999999998 14.17324, 233.85845999999998 14.17324, 205.51198 0, 205.51198 0, 177.1655 14.17324, 177.1655 14.17324, 148.81902 0, 148.81902 0, 120.47254 14.17324, 120.47254 14.17324, 92.12606 0, 92.12606 0, 46.06303 14.17324, 46.06303 "/> 
</g></svg>