<?xml version="1.0" encoding="UTF-8" standalone="no"?>
<!-- Created with Inkscape (http://www.inkscape.org/) -->

<svg
   xmlns:dc="http://purl.org/dc/elements/1.1/"
   xmlns:cc="http://creativecommons.org/ns#"
   xmlns:rdf="http://www.w3.org/1999/02/22-rdf-syntax-ns#"
   xmlns:svg="http://www.w3.org/2000/svg"
   xmlns="http://www.w3.org/2000/svg"
   xmlns:sodipodi="http://sodipodi.sourceforge.net/DTD/sodipodi-0.dtd"
   xmlns:inkscape="http://www.inkscape.org/namespaces/inkscape"
   width="210mm"
   height="297mm"
   viewBox="0 0 744.09448819 1052.3622047"
   id="svg4170"
   version="1.1"
   inkscape:version="0.91 r13725"
   sodipodi:docname="box_visitenkarten_bot.svg">
  <defs
     id="defs4172" />
  <sodipodi:namedview
     id="base"
     pagecolor="#ffffff"
     bordercolor="#666666"
     borderopacity="1.0"
     inkscape:pageopacity="0.0"
     inkscape:pageshadow="2"
     inkscape:zoom="0.98994949"
     inkscape:cx="280.08768"
     inkscape:cy="580.92728"
     inkscape:document-units="px"
     inkscape:current-layer="layer1"
     showgrid="false"
     inkscape:window-width="1920"
     inkscape:window-height="1017"
     inkscape:window-x="-8"
     inkscape:window-y="-8"
     inkscape:window-maximized="1" />
  <metadata
     id="metadata4175">
    <rdf:RDF>
      <cc:Work
         rdf:about="">
        <dc:format>image/svg+xml</dc:format>
        <dc:type
           rdf:resource="http://purl.org/dc/dcmitype/StillImage" />
        <dc:title></dc:title>
      </cc:Work>
    </rdf:RDF>
  </metadata>
  <g
     inkscape:label="Ebene 1"
     inkscape:groupmode="layer"
     id="layer1">
    <g
       transform="translate(284.20683,422.86834)"
       id="g20">
      <path
         style="fill:none;stroke:#000000;stroke-width:0.90000075"
         d="m 72.637855,10.62993 0,-10.62993 17.71655,0 0,10.62993 17.716545,0 0,-10.62993 17.71655,0 0,10.62993 17.71655,0 0,-10.62993 17.71655,0 0,10.62993 17.71655,0 0,-10.62993 17.71655,0 0,10.62993 17.71655,0 0,-10.62993 17.71655,0 0,10.62993 17.71655,0 0,-10.62993 17.71655,0 0,10.62993 17.71655,0 0,-10.62993 27.46066,0 0,10.62993 16.83072,0 0,16.830722 10.62993,0 0,27.460653 -10.62993,0 0,17.71655 10.62993,0 0,27.460655 -10.62993,0 0,16.83072 -16.83072,0 0,10.62993 -27.46066,0 0,-10.62993 -17.71655,0 0,10.62993 -17.71655,0 0,-10.62993 -17.71655,0 0,10.62993 -17.71655,0 0,-10.62993 -17.71655,0 0,10.62993 -17.71655,0 0,-10.62993 -17.71655,0 0,10.62993 -17.71655,0 0,-10.62993 -17.71655,0 0,10.62993 -17.71655,0 0,-10.62993 -17.716545,0 0,10.62993 -17.71655,0 0,-10.62993 -17.71655,0 0,10.62993 -27.460653,0 0,-10.62993 -16.830722,0 0,-16.83072 -10.62993,0 0,-27.460655 10.62993,0 0,-17.71655 -10.62993,0 0,-27.460653 10.62993,0 0,-16.830722 16.830722,0 0,-10.62993 27.460653,0 0,10.62993 z"
         id="polygon22" />
    </g>
  </g>
</svg>
