<?xml version="1.0" standalone="no"?>
<!DOCTYPE svg PUBLIC "-//W3C//DTD SVG 1.1//EN" "http://www.w3.org/Graphics/SVG/1.1/DTD/svg11.dtd">
<svg width="60mm" height="70mm" viewBox="-30 -35 60 70" xmlns="http://www.w3.org/2000/svg" version="1.1">
<title>OpenSCAD Model</title>
<path d="
M 30,35 L 30,-35 L -30,-35 L -30,23.5 L 0,23.5 L 0,26.5
 L -30,26.5 L -30,35 z
M -4.5,-21.5 L -4.5,-23 L -20,-23 L -20,-27 L -4.5,-27 L -4.5,-28.5
 L 4.5,-28.5 L 4.5,-27 L 20,-27 L 20,-23 L 4.5,-23 L 4.5,-21.5
 z
M -20,-12.5 L -20,-17.5 L 20,-17.5 L 20,-12.5 z
M -20,-2.5 L -20,-7.5 L 20,-7.5 L 20,-2.5 z
M -20,7.5 L -20,2.5 L 20,2.5 L 20,7.5 z
M -20,17.5 L -20,12.5 L 20,12.5 L 20,17.5 z
" stroke="black" fill="lightgray" stroke-width="0.5"/></svg>
