<?xml version="1.0" encoding="UTF-8" standalone="no"?>
<!-- Created with Inkscape (http://www.inkscape.org/) -->

<svg
   xmlns:dc="http://purl.org/dc/elements/1.1/"
   xmlns:cc="http://creativecommons.org/ns#"
   xmlns:rdf="http://www.w3.org/1999/02/22-rdf-syntax-ns#"
   xmlns:svg="http://www.w3.org/2000/svg"
   xmlns="http://www.w3.org/2000/svg"
   xmlns:sodipodi="http://sodipodi.sourceforge.net/DTD/sodipodi-0.dtd"
   xmlns:inkscape="http://www.inkscape.org/namespaces/inkscape"
   width="210mm"
   height="297mm"
   viewBox="0 0 744.09448819 1052.3622047"
   id="svg4210"
   version="1.1"
   inkscape:version="0.91 r13725"
   sodipodi:docname="box_besteck_sperrholz_4mm_smallwalls.svg">
  <defs
     id="defs4212" />
  <sodipodi:namedview
     id="base"
     pagecolor="#ffffff"
     bordercolor="#666666"
     borderopacity="1.0"
     inkscape:pageopacity="0.0"
     inkscape:pageshadow="2"
     inkscape:zoom="1.4"
     inkscape:cx="398.93347"
     inkscape:cy="616.40507"
     inkscape:document-units="px"
     inkscape:current-layer="layer1"
     showgrid="false"
     inkscape:window-width="1920"
     inkscape:window-height="1017"
     inkscape:window-x="-8"
     inkscape:window-y="-8"
     inkscape:window-maximized="1" />
  <metadata
     id="metadata4215">
    <rdf:RDF>
      <cc:Work
         rdf:about="">
        <dc:format>image/svg+xml</dc:format>
        <dc:type
           rdf:resource="http://purl.org/dc/dcmitype/StillImage" />
        <dc:title />
      </cc:Work>
    </rdf:RDF>
  </metadata>
  <g
     inkscape:label="Ebene 1"
     inkscape:groupmode="layer"
     id="layer1">
    <path
       transform="translate(2.8119921,371.48468)"
       style="fill:none;stroke:#000000;stroke-width:0.90000075"
       d="m 354.331,0 0,44.291375 -14.17324,0 0,44.291375 14.17324,0 0,28.34648 -14.17324,0 0,28.34648 14.17324,0 0,28.34648 -14.17324,0 0,28.34648 14.17324,0 0,28.34648 -14.17324,0 0,44.29137 14.17324,0 0,44.29138 -38.97641,0 0,-14.17324 -38.97641,0 0,14.17324 -28.34648,0 0,-14.17324 -28.34648,0 0,14.17324 -28.34648,0 0,-14.17324 -28.34648,0 0,14.17324 -28.34648,0 0,-14.17324 -28.34648,0 0,14.17324 -28.34648,0 0,-14.17324 -38.97641,0 0,14.17324 -38.97641,0 0,-44.29138 14.17324,0 0,-44.29137 -14.17324,0 0,-28.34648 14.17324,0 0,-28.34648 -14.17324,0 0,-28.34648 14.17324,0 0,-28.34648 -14.17324,0 0,-28.34648 14.17324,0 0,-44.291375 L 0,44.291375 0,0 Z"
       id="polygon4144"
       inkscape:connector-curvature="0"
       sodipodi:nodetypes="ccccccccccccccccccccccccccccccccccccccccccccccccccccccccc" />
  </g>
</svg>
