<?xml version="1.0" encoding="UTF-8" standalone="no"?>
<!-- Created with Inkscape (http://www.inkscape.org/) -->

<svg
   xmlns:dc="http://purl.org/dc/elements/1.1/"
   xmlns:cc="http://creativecommons.org/ns#"
   xmlns:rdf="http://www.w3.org/1999/02/22-rdf-syntax-ns#"
   xmlns:svg="http://www.w3.org/2000/svg"
   xmlns="http://www.w3.org/2000/svg"
   xmlns:sodipodi="http://sodipodi.sourceforge.net/DTD/sodipodi-0.dtd"
   xmlns:inkscape="http://www.inkscape.org/namespaces/inkscape"
   width="210mm"
   height="297mm"
   viewBox="0 0 744.09448819 1052.3622047"
   id="svg4737"
   version="1.1"
   inkscape:version="0.91 r13725"
   sodipodi:docname="box_visitenkarten_frontback.svg">
  <defs
     id="defs4739" />
  <sodipodi:namedview
     id="base"
     pagecolor="#ffffff"
     bordercolor="#666666"
     borderopacity="1.0"
     inkscape:pageopacity="0.0"
     inkscape:pageshadow="2"
     inkscape:zoom="2.8"
     inkscape:cx="326.84341"
     inkscape:cy="807.47781"
     inkscape:document-units="px"
     inkscape:current-layer="layer1"
     showgrid="false"
     inkscape:window-width="1920"
     inkscape:window-height="1017"
     inkscape:window-x="-8"
     inkscape:window-y="-8"
     inkscape:window-maximized="1" />
  <metadata
     id="metadata4742">
    <rdf:RDF>
      <cc:Work
         rdf:about="">
        <dc:format>image/svg+xml</dc:format>
        <dc:type
           rdf:resource="http://purl.org/dc/dcmitype/StillImage" />
        <dc:title></dc:title>
      </cc:Work>
    </rdf:RDF>
  </metadata>
  <g
     inkscape:label="Ebene 1"
     inkscape:groupmode="layer"
     id="layer1">
    <path
       inkscape:connector-curvature="0"
       id="polygon6"
       d="m 501.50742,209.15632 0,18.42521 -10.62993,0 0,18.42521 10.62993,0 0,18.42522 -10.62993,0 0,18.42521 10.62993,0 0,18.42521 -27.46065,0 0,-10.62993 -27.46066,0 0,10.62993 -17.71655,0 0,-10.62993 -17.71655,0 0,10.62993 -17.71655,0 0,-10.62993 -17.71655,0 0,10.62993 -17.71655,0 0,-10.62993 -17.71655,0 0,10.62993 -17.71655,0 0,-10.62993 -17.71655,0 0,10.62993 -17.71655,0 0,-10.62993 -17.71655,0 0,10.62993 -17.71655,0 0,-10.62993 -17.71655,0 0,10.62993 -17.71655,0 0,-10.62993 -27.46065,0 0,10.62993 -27.46065,0 0,-18.42521 10.62993,0 0,-18.42521 -10.62993,0 0,-18.42522 10.62993,0 0,-18.42521 -10.62993,0 0,-18.42521 z"
       style="fill:none;stroke:#000000;stroke-width:0.90000075"
       sodipodi:nodetypes="ccccccccccccccccccccccccccccccccccccccccccccccccccccc" />
  </g>
</svg>
